<svg width="40" height="46" viewBox="0 0 40 46" fill="none" xmlns="http://www.w3.org/2000/svg">
<path d="M35.7143 2.85714H4.28571C1.91964 2.85714 0 4.77679 0 7.14286V38.5714C0 40.9375 1.91964 42.8571 4.28571 42.8571H35.7143C38.0804 42.8571 40 40.9375 40 38.5714V7.14286C40 4.77679 38.0804 2.85714 35.7143 2.85714ZM24.7589 37.1161C24.0089 37.25 23.7321 36.7857 23.7321 36.4018C23.7321 35.9196 23.75 33.4554 23.75 31.4643C23.75 30.0714 23.2857 29.1875 22.7411 28.7232C26.0446 28.3571 29.5268 27.9018 29.5268 22.1964C29.5268 20.5714 28.9464 19.7589 28 18.7143C28.1518 18.3304 28.6607 16.75 27.8482 14.6964C26.6071 14.3125 23.7679 16.2946 23.7679 16.2946C22.5893 15.9643 21.3125 15.7946 20.0536 15.7946C18.7946 15.7946 17.5179 15.9643 16.3393 16.2946C16.3393 16.2946 13.5 14.3125 12.2589 14.6964C11.4464 16.7411 11.9464 18.3214 12.1071 18.7143C11.1607 19.7589 10.7143 20.5714 10.7143 22.1964C10.7143 27.875 14.0446 28.3571 17.3482 28.7232C16.9196 29.1071 16.5357 29.7679 16.4018 30.7143C15.5536 31.0982 13.3839 31.7589 12.0893 29.4732C11.2768 28.0625 9.8125 27.9464 9.8125 27.9464C8.36607 27.9286 9.71429 28.8571 9.71429 28.8571C10.6786 29.3036 11.3571 31.0179 11.3571 31.0179C12.2232 33.6696 16.3661 32.7768 16.3661 32.7768C16.3661 34.0179 16.3839 36.0357 16.3839 36.4018C16.3839 36.7857 16.1161 37.25 15.3571 37.1161C9.46429 35.1429 5.33929 29.5357 5.33929 22.9821C5.33929 14.7857 11.6071 8.5625 19.8036 8.5625C28 8.5625 34.6429 14.7857 34.6429 22.9821C34.6518 29.5357 30.6518 35.1518 24.7589 37.1161ZM16 31.6607C15.8304 31.6964 15.6696 31.625 15.6518 31.5089C15.6339 31.375 15.75 31.2589 15.9196 31.2232C16.0893 31.2054 16.25 31.2768 16.2679 31.3929C16.2946 31.5089 16.1786 31.625 16 31.6607ZM15.1518 31.5804C15.1518 31.6964 15.0179 31.7946 14.8393 31.7946C14.6429 31.8125 14.5089 31.7143 14.5089 31.5804C14.5089 31.4643 14.6429 31.3661 14.8214 31.3661C14.9911 31.3482 15.1518 31.4464 15.1518 31.5804ZM13.9286 31.4821C13.8929 31.5982 13.7143 31.6518 13.5625 31.5982C13.3929 31.5625 13.2768 31.4286 13.3125 31.3125C13.3482 31.1964 13.5268 31.1429 13.6786 31.1786C13.8571 31.2321 13.9732 31.3661 13.9286 31.4821ZM12.8304 31C12.75 31.0982 12.5804 31.0804 12.4464 30.9464C12.3125 30.8304 12.2768 30.6607 12.3661 30.5804C12.4464 30.4821 12.6161 30.5 12.75 30.6339C12.8661 30.75 12.9107 30.9286 12.8304 31ZM12.0179 30.1875C11.9375 30.2411 11.7857 30.1875 11.6875 30.0536C11.5893 29.9196 11.5893 29.7679 11.6875 29.7054C11.7857 29.625 11.9375 29.6875 12.0179 29.8214C12.1161 29.9554 12.1161 30.1161 12.0179 30.1875ZM11.4375 29.3214C11.3571 29.4018 11.2232 29.3571 11.125 29.2679C11.0268 29.1518 11.0089 29.0179 11.0893 28.9554C11.1696 28.875 11.3036 28.9196 11.4018 29.0089C11.5 29.125 11.5179 29.2589 11.4375 29.3214ZM10.8393 28.6607C10.8036 28.7411 10.6875 28.7589 10.5893 28.6964C10.4732 28.6429 10.4196 28.5446 10.4554 28.4643C10.4911 28.4107 10.5893 28.3839 10.7054 28.4286C10.8214 28.4911 10.875 28.5893 10.8393 28.6607Z" fill="#E7E7E7"/>
</svg>
